# File created by Blade
# Date/Time:  Tue Jan 27 19:14:14 2015
#---------------------------------------------------------
:version 1.10
:name HOM
:units
  mass 1.0
  length 1.000000
  angle deg
:documentation
     Acclaim Skeleton File
:root
   axis xyz
   order TX TY TZ RX RY RZ
   position 0.000000 0.000000 0.000000
   orientation 0 0 0
:bonedata
   begin
      id 1
      name Spine_dum
      direction 0.000000 1.000000 0.000000
      length 6.116652
      axis 0.0 0.0 0.0 xyz
   end
   begin
      id 2
      name LeftUpLeg_dum
      direction 1.000000 0.000000 0.000000
      length 4.711765
      axis 0.0 0.0 0.0 xyz
   end
   begin
      id 3
      name RightUpLeg_dum
      direction -1.000000 0.000000 0.000000
      length 4.711765
      axis 0.0 0.0 0.0 xyz
   end
   begin
      id 4
      name Spine
      direction 0.000000 1.000000 0.000000
      length 0.000000
      axis 0.0 0.0 0.0 xyz
      dof rx ry rz
   end
   begin
      id 5
      name Spine_dum1
      direction 0.000000 1.000000 0.000000
      length 15.225563
      axis 0.0 0.0 0.0 xyz
   end
   begin
      id 6
      name Spine_dum2
      direction 0.000000 1.000000 0.000000
      length 8.977654
      axis 0.0 0.0 0.0 xyz
   end
   begin
      id 7
      name Spine_dum3
      direction 0.000000 1.000000 0.000000
      length 8.977654
      axis 0.0 0.0 0.0 xyz
   end
   begin
      id 8
      name Head
      direction 0.000000 1.000000 0.000000
      length 4.527550
      axis 0.0 0.0 0.0 xyz
      dof rx ry rz
   end
   begin
      id 9
      name LeftShoulder
      direction 1.000000 0.000000 0.000000
      length 7.110130
      axis 0.0 0.0 -90.0 xyz
      dof rx ry rz
   end
   begin
      id 10
      name LeftArm
      direction 1.000000 0.000000 0.000000
      length 10.398341
      axis 0.0 0.0 -90.0 xyz
      dof rx ry rz
   end
   begin
      id 11
      name LeftForeArm
      direction 1.000000 0.000000 0.000000
      length 8.888997
      axis 0.0 0.0 -90.0 xyz
      dof ry rz rx
   end
   begin
      id 12
      name LeftHand
      direction 0.000000 0.000000 0.000000
      length 0.000000
      axis 0.0 0.0 -90.0 xyz
      dof rx ry rz
   end
   begin
      id 13
      name LeftHand_dum1
      direction 0.000000 0.000000 0.000000
      length 0.000000
      axis 0.0 0.0 -90.0 xyz
   end
   begin
      id 14
      name LeftHand_dum2
      direction 1.000000 0.000000 0.000000
      length 3.937000
      axis 0.0 0.0 -90.0 xyz
   end
   begin
      id 15
      name LeftHandThumb1
      direction 0.000000 0.000000 1.000000
      length 3.937000
      axis 0.0 0.0 -90.0 xyz
      dof rx rz ry
   end
   begin
      id 16
      name RightShoulder
      direction -1.000000 0.000000 0.000000
      length 7.110130
      axis 0.0 0.0 90.0 xyz
      dof rx ry rz
   end
   begin
      id 17
      name RightArm
      direction -1.000000 0.000000 0.000000
      length 10.398341
      axis 0.0 0.0 90.0 xyz
      dof rx ry rz
   end
   begin
      id 18
      name RightForeArm
      direction -1.000000 0.000000 0.000000
      length 8.888997
      axis 0.0 0.0 90.0 xyz
      dof ry rz rx
   end
   begin
      id 19
      name RightHand
      direction 0.000000 0.000000 0.000000
      length 0.000000
      axis 0.0 0.0 90.0 xyz
      dof rx ry rz
   end
   begin
      id 20
      name RightHand_dum1
      direction 0.000000 0.000000 0.000000
      length 0.000000
      axis 0.0 0.0 90.0 xyz
   end
   begin
      id 21
      name RightHand_dum2
      direction -1.000000 0.000000 0.000000
      length 3.937000
      axis 0.0 0.0 90.0 xyz
   end
   begin
      id 22
      name RightHandThumb1
      direction 0.000000 0.000000 1.000000
      length 3.937000
      axis 0.0 0.0 90.0 xyz
      dof rx rz ry
   end
   begin
      id 23
      name LeftUpLeg
      direction 0.000000 -1.000000 0.000000
      length 15.510451
      axis 0.0 0.0 0.0 xyz
      dof rx ry rz
   end
   begin
      id 24
      name LeftLeg
      direction 0.000000 -1.000000 0.000000
      length 14.858061
      axis 0.0 0.0 0.0 xyz
      dof rx ry rz
   end
   begin
      id 25
      name LeftFoot
      direction 0.000000 -0.258819 0.965926
      length 5.128852
      axis 15.0 0.0 0.0 xyz
      dof rx ry rz
   end
   begin
      id 26
      name LeftToeBase
      direction 0.000000 0.000000 1.000000
      length 2.952750
      axis 0.0 0.0 0.0 xyz
      dof rx ry rz
   end
   begin
      id 27
      name RightUpLeg
      direction 0.000000 -1.000000 0.000000
      length 15.510451
      axis 0.0 0.0 0.0 xyz
      dof rx ry rz
   end
   begin
      id 28
      name RightLeg
      direction 0.000000 -1.000000 0.000000
      length 14.858061
      axis 0.0 0.0 0.0 xyz
      dof rx ry rz
   end
   begin
      id 29
      name RightFoot
      direction 0.000000 -0.258819 0.965926
      length 5.128852
      axis 15.0 0.0 0.0 xyz
      dof rx ry rz
   end
   begin
      id 30
      name RightToeBase
      direction 0.000000 0.000000 1.000000
      length 2.952750
      axis 0.0 0.0 0.0 xyz
      dof rx ry rz
   end
:hierarchy
   begin
      root Spine_dum LeftUpLeg_dum RightUpLeg_dum
      Spine_dum Spine
      LeftUpLeg_dum LeftUpLeg
      RightUpLeg_dum RightUpLeg
      Spine Spine_dum1 Spine_dum2 Spine_dum3
      Spine_dum1 Head
      Spine_dum2 LeftShoulder
      Spine_dum3 RightShoulder
      LeftShoulder LeftArm
      LeftArm LeftForeArm
      LeftForeArm LeftHand
      LeftHand LeftHand_dum1 LeftHand_dum2
      LeftHand_dum1 LeftHandThumb1
      RightShoulder RightArm
      RightArm RightForeArm
      RightForeArm RightHand
      RightHand RightHand_dum1 RightHand_dum2
      RightHand_dum1 RightHandThumb1
      LeftUpLeg LeftLeg
      LeftLeg LeftFoot
      LeftFoot LeftToeBase
      RightUpLeg RightLeg
      RightLeg RightFoot
      RightFoot RightToeBase
   end

# File created by Blade
# Date/Time:  Tue Jan 27 19:14:06 2015
# Frame Rate: 120.000 fps
#------------------------------------------------------
:FULLY-SPECIFIED
:DEGREES
141
root 4.268776 32.412834 0.081269 -3.186339 0.796885 0.497304
Spine 2.250336 4.634158 -1.693970
Head 1.705008 -8.814240 6.275432
LeftShoulder -12.296951 -1.858080 31.172083
LeftArm -7.347897 33.248011 -103.578118
LeftForeArm 14.319219 -0.000000 35.248880
LeftHand 10.577716 -0.000000 -10.222093
LeftHandThumb1 -26.253704 0.000000 33.147579
RightShoulder -17.142890 1.812378 -55.231833
RightArm 36.900984 54.138429 44.537174
RightForeArm -10.224033 -0.000000 21.343787
RightHand 14.922634 -0.000000 -0.954060
RightHandThumb1 -24.326973 -0.000000 -32.862282
LeftUpLeg 8.034140 -3.221686 -1.614873
LeftLeg 2.860445 -0.000000 -0.000000
LeftFoot -17.023064 12.984135 -22.125429
LeftToeBase 17.219242 -0.000000 -0.000000
RightUpLeg 6.967675 0.739504 3.024499
RightLeg 1.403979 -0.000000 -0.000000
RightFoot -11.941901 -14.257583 13.588047
RightToeBase 11.607463 -0.000000 -0.000000
142
root 4.261864 32.414020 0.085287 -3.178785 0.797583 0.495791
Spine 2.200435 4.741100 -1.709238
Head 1.823314 -8.994642 6.362843
LeftShoulder -12.219056 -2.045843 31.018812
LeftArm -7.313737 33.324197 -104.294348
LeftForeArm 14.008296 0.000000 33.598273
LeftHand 10.757247 0.000000 -9.692707
LeftHandThumb1 -26.253704 0.000000 33.147579
RightShoulder -17.201051 2.130181 -55.456001
RightArm 38.480697 55.524480 46.253859
RightForeArm -8.908125 -0.000000 22.815987
RightHand 15.110731 -0.000000 -1.047900
RightHandThumb1 -24.326973 -0.000000 -32.862282
LeftUpLeg 8.040684 -3.194521 -1.597667
LeftLeg 2.846057 -0.000000 -0.000000
LeftFoot -17.013937 12.960898 -22.141839
LeftToeBase 17.226527 -0.000000 -0.000000
RightUpLeg 6.982432 0.732436 3.038853
RightLeg 1.371718 -0.000000 -0.000000
RightFoot -11.921853 -14.277902 13.563943
RightToeBase 11.667343 -0.000000 -0.000000
143
root 4.254122 32.415074 0.089204 -3.166576 0.820154 0.487546
Spine 2.141688 4.846691 -1.721851
Head 1.971566 -9.204066 6.454458
LeftShoulder -12.120360 -2.278859 30.870729
LeftArm -7.306966 33.349255 -104.979736
LeftForeArm 13.633964 0.000000 31.953239
LeftHand 10.723665 0.000000 -9.132764
LeftHandThumb1 -26.253704 0.000000 33.147579
RightShoulder -17.251786 2.815400 -55.802638
RightArm 39.485651 56.476839 47.510310
RightForeArm -8.028461 -0.000000 24.420978
RightHand 15.137998 -0.000000 -1.692204
RightHandThumb1 -24.326973 -0.000000 -32.862282
LeftUpLeg 8.024778 -3.208733 -1.571975
LeftLeg 2.861589 -0.000000 -0.000000
LeftFoot -17.003263 12.949990 -22.121365
LeftToeBase 17.230194 -0.000000 -0.000000
RightUpLeg 6.990104 0.702138 3.056792
RightLeg 1.347993 -0.000000 -0.000000
RightFoot -11.898780 -14.262545 13.580077
RightToeBase 11.660289 -0.000000 -0.000000
144
root 4.244572 32.416363 0.094326 -3.171179 0.856179 0.477447
Spine 2.102185 4.943753 -1.736424
Head 2.114598 -9.400115 6.516820
LeftShoulder -12.026807 -2.554558 30.718352
LeftArm -7.320465 33.303493 -105.608828
LeftForeArm 13.245207 -0.000000 30.290543
LeftHand 10.959907 -0.000000 -8.840683
LeftHandThumb1 -26.253704 0.000000 33.147579
RightShoulder -17.341655 3.783639 -56.207841
RightArm 40.174708 57.107913 48.430469
RightForeArm -7.399401 -0.000000 26.048771
RightHand 15.375907 -0.000000 -2.814491
RightHandThumb1 -24.326973 -0.000000 -32.862282
LeftUpLeg 8.037609 -3.208992 -1.540653
LeftLeg 2.851782 -0.000000 -0.000000
LeftFoot -16.983175 12.897246 -22.169120
LeftToeBase 17.200919 -0.000000 -0.000000
RightUpLeg 7.027578 0.655965 3.077232
RightLeg 1.306945 -0.000000 -0.000000
RightFoot -11.865460 -14.237445 13.583211
RightToeBase 11.721478 -0.000000 -0.000000
145
root 4.235860 32.417344 0.098433 -3.158599 0.891232 0.472574
Spine 2.048243 5.056787 -1.768623
Head 2.245456 -9.591404 6.583092
LeftShoulder -11.915569 -2.936922 30.594848
LeftArm -7.442356 33.201184 -106.251134
LeftForeArm 12.803897 -0.000000 28.653875
LeftHand 10.967563 0.000000 -8.191591
LeftHandThumb1 -26.253704 0.000000 33.147579
RightShoulder -17.358439 4.306402 -56.428262
RightArm 41.335559 58.076006 49.737351
RightForeArm -7.291398 -0.000000 27.871034
RightHand 15.446118 0.000000 -3.924201
RightHandThumb1 -24.326973 -0.000000 -32.862282
LeftUpLeg 8.032444 -3.202872 -1.516853
LeftLeg 2.842594 -0.000000 -0.000000
LeftFoot -16.964836 12.893951 -22.106523
LeftToeBase 17.254020 -0.000000 -0.000000
RightUpLeg 7.049940 0.659359 3.098772
RightLeg 1.260825 -0.000000 -0.000000
RightFoot -11.868698 -14.276561 13.621320
RightToeBase 11.714742 -0.000000 -0.000000
146
root 4.226115 32.417630 0.102349 -3.151165 0.939540 0.468216
Spine 1.995419 5.192928 -1.794412
Head 2.390271 -9.827135 6.634422
LeftShoulder -11.808881 -3.124694 30.420655
LeftArm -7.260881 33.118938 -106.677234
LeftForeArm 12.335603 -0.000000 26.977427
LeftHand 11.149837 -0.000000 -8.052170
LeftHandThumb1 -26.253704 0.000000 33.147579
RightShoulder -17.420682 4.811809 -56.609195
RightArm 42.669306 58.957585 51.127991
RightForeArm -7.464863 0.000000 29.750830
RightHand 15.599502 -0.000000 -4.957626
RightHandThumb1 -24.326973 -0.000000 -32.862282
LeftUpLeg 8.026291 -3.245619 -1.499047
LeftLeg 2.840926 -0.000000 -0.000000
LeftFoot -16.956263 12.891311 -22.119998
LeftToeBase 17.210700 -0.000000 -0.000000
RightUpLeg 7.074374 0.650471 3.123582
RightLeg 1.218656 -0.000000 -0.000000
RightFoot -11.851020 -14.315888 13.619979
RightToeBase 11.705877 -0.000000 -0.000000
147
root 4.218174 32.418607 0.107593 -3.136524 0.986086 0.471595
Spine 1.916263 5.325624 -1.814051
Head 2.526448 -10.115158 6.667881
LeftShoulder -11.682778 -3.388980 30.237559
LeftArm -7.196326 33.025477 -107.104800
LeftForeArm 11.789539 -0.000000 25.344897
LeftHand 11.152670 -0.000000 -7.493768
LeftHandThumb1 -26.253704 0.000000 33.147579
RightShoulder -17.385171 5.277268 -56.873949
RightArm 43.900712 59.894183 52.618225
RightForeArm -7.838731 -0.000000 31.850790
RightHand 15.777517 -0.000000 -5.578814
RightHandThumb1 -24.326973 -0.000000 -32.862282
LeftUpLeg 8.021801 -3.240379 -1.482907
LeftLeg 2.825169 -0.000000 -0.000000
LeftFoot -16.924194 12.863636 -22.101576
LeftToeBase 17.234680 -0.000000 -0.000000
RightUpLeg 7.090175 0.633176 3.135714
RightLeg 1.182788 -0.000000 -0.000000
RightFoot -11.844683 -14.345854 13.633966
RightToeBase 11.747006 -0.000000 -0.000000
148
root 4.208944 32.418612 0.110805 -3.118970 1.039212 0.472885
Spine 1.861570 5.485632 -1.839978
Head 2.652136 -10.408022 6.701560
LeftShoulder -11.576460 -3.664848 30.074819
LeftArm -7.086203 32.963989 -107.463021
LeftForeArm 11.336429 -0.000000 23.734257
LeftHand 11.196576 -0.000000 -7.100785
LeftHandThumb1 -26.253704 0.000000 33.147579
RightShoulder -17.386296 5.606483 -57.065134
RightArm 45.426642 60.861579 54.338988
RightForeArm -8.336130 -0.000000 34.022837
RightHand 15.988564 0.000000 -6.237556
RightHandThumb1 -24.326973 -0.000000 -32.862282
LeftUpLeg 8.003196 -3.269954 -1.464671
LeftLeg 2.821956 -0.000000 -0.000000
LeftFoot -16.912353 12.838934 -22.109319
LeftToeBase 17.260860 -0.000000 -0.000000
RightUpLeg 7.096278 0.616353 3.152327
RightLeg 1.159363 -0.000000 -0.000000
RightFoot -11.847561 -14.382071 13.641627
RightToeBase 11.708193 -0.000000 -0.000000
149
root 4.200856 32.418846 0.117987 -3.117506 1.113194 0.474733
Spine 1.795609 5.580035 -1.878760
Head 2.873594 -10.658295 6.766837
LeftShoulder -11.492279 -3.942164 29.926362
LeftArm -7.012480 32.845527 -107.792424
LeftForeArm 10.830032 -0.000000 22.150403
LeftHand 11.212426 -0.000000 -6.881187
LeftHandThumb1 -26.253704 0.000000 33.147579
RightShoulder -17.328232 6.010726 -57.162946
RightArm 46.842648 61.695263 55.820700
RightForeArm -8.520012 0.000000 36.230217
RightHand 15.759491 0.000000 -6.117303
RightHandThumb1 -24.326973 -0.000000 -32.862282
LeftUpLeg 8.004765 -3.349027 -1.457672
LeftLeg 2.825346 -0.000000 -0.000000
LeftFoot -16.915842 12.846197 -22.114273
LeftToeBase 17.262437 -0.000000 -0.000000
RightUpLeg 7.149089 0.601952 3.166418
RightLeg 1.091923 -0.000000 -0.000000
RightFoot -11.846047 -14.417075 13.671903
RightToeBase 11.761957 -0.000000 -0.000000
150
root 4.189506 32.419648 0.123090 -3.120881 1.180227 0.480751
Spine 1.754473 5.708846 -1.918447
Head 3.062103 -10.895319 6.798792
LeftShoulder -11.435729 -4.161440 29.764159
LeftArm -6.788532 32.913382 -108.004834
LeftForeArm 10.282521 -0.000000 20.544285
LeftHand 11.225630 -0.000000 -6.440013
LeftHandThumb1 -26.253704 0.000000 33.147579
RightShoulder -17.295117 6.388047 -57.312629
RightArm 48.419332 62.523300 57.593173
RightForeArm -8.675240 -0.000000 38.594862
RightHand 16.065211 -0.000000 -6.695070
RightHandThumb1 -24.326973 -0.000000 -32.862282
LeftUpLeg 8.002051 -3.367482 -1.437889
LeftLeg 2.831937 -0.000000 -0.000000
LeftFoot -16.886158 12.797136 -22.142004
LeftToeBase 17.195155 -0.000000 -0.000000
RightUpLeg 7.182512 0.575356 3.182648
RightLeg 1.063482 -0.000000 -0.000000
RightFoot -11.858938 -14.454849 13.698484
RightToeBase 11.737182 -0.000000 -0.000000
151
root 4.176184 32.420753 0.123744 -3.092653 1.242348 0.482925
Spine 1.691666 5.858167 -1.953967
Head 3.245277 -11.160752 6.833604
LeftShoulder -11.345785 -4.438822 29.591123
LeftArm -6.625906 32.963726 -108.156447
LeftForeArm 9.711064 -0.000000 19.056916
LeftHand 11.257951 0.000000 -6.489909
LeftHandThumb1 -26.253704 0.000000 33.147579
RightShoulder -17.295117 6.671337 -57.446834
RightArm 50.241857 63.311448 59.620957
RightForeArm -8.664412 -0.000000 41.052445
RightHand 16.414845 0.000000 -7.441484
RightHandThumb1 -24.326973 -0.000000 -32.862282
LeftUpLeg 7.953162 -3.399857 -1.411255
LeftLeg 2.856495 -0.000000 -0.000000
LeftFoot -16.865348 12.771930 -22.130820
LeftToeBase 17.217288 -0.000000 -0.000000
RightUpLeg 7.179035 0.646873 3.219894
RightLeg 1.029670 -0.000000 -0.000000
RightFoot -11.874924 -14.595265 13.724261
RightToeBase 11.704496 -0.000000 -0.000000
152
root 4.161115 32.422053 0.129071 -3.086712 1.329239 0.472253
Spine 1.646203 5.985089 -1.982088
Head 3.420891 -11.403344 6.862831
LeftShoulder -11.239081 -4.731801 29.428878
LeftArm -6.524264 32.980496 -108.261142
LeftForeArm 9.267638 -0.000000 17.740865
LeftHand 11.040438 -0.000000 -7.167678
LeftHandThumb1 -26.253704 0.000000 33.147579
RightShoulder -17.294368 6.904628 -57.555771
RightArm 52.311633 64.097146 61.910663
RightForeArm -8.301327 0.000000 43.504537
RightHand 16.972559 -0.000000 -7.568736
RightHandThumb1 -24.326973 -0.000000 -32.862282
LeftUpLeg 7.937212 -3.369060 -1.357708
LeftLeg 2.865826 -0.000000 -0.000000
LeftFoot -16.806266 12.671015 -22.085857
LeftToeBase 17.173660 -0.000000 -0.000000
RightUpLeg 7.195682 0.561957 3.248659
RightLeg 1.017616 -0.000000 -0.000000
RightFoot -11.867385 -14.572146 13.750904
RightToeBase 11.811439 -0.000000 -0.000000
